<svg xmlns="http://www.w3.org/2000/svg" width="512" height="512" style="overflow: visible;" viewBox="0 0 512 512" data-svgdocument="" id="_mWFBY-ERIU41ArtsskAd4" class="fl-svgdocument" x="0" y="0" data-bbox="60.4789644012945 226.11221276845555 402.71121649121005 59.7755744630889"><defs id="_66f-u0qY-N34T8DhYK2cD" transform="matrix(0.8819933533668518, 0, 0, 0.8819933533668518, -90.57898712158203, 40.82586669921875)" data-uid="o_f1l6i3ih8_4"></defs><path text="CrossLang" text-anchor="middle" font-size="100" letter-spacing="0" side="left" offset="0.5" dx="0" dy="0" space="preserve" href="" font-family="Muli" font-scale="contain" transform="matrix(0.783065091767986, 0, 0, 0.7499581245183456, 256.6264544631394, 379.98241880357176)" x="0" y="0" fill="rgba(51, 51, 51, 1)" font-weight="400" data-fl-textpath="" id="_dkzY7ly4NeF5zBxjgABEq" font-style="normal" data-uid="o_f1l6i3ih8_5" d="M-207.45 0.8Q-217.54999999999998 0.8 -224.99999999999997-3.6Q-232.45-8 -236.45-16.25Q-240.45-24.5 -240.45-35.7L-240.45-35.7Q-240.45-46.9 -236.45-55.05Q-232.45-63.2 -224.99999999999997-67.6Q-217.54999999999998-72 -207.45-72L-207.45-72Q-200.04999999999998-72 -193.89999999999998-69.75Q-187.74999999999997-67.5 -183.24999999999997-63L-183.24999999999997-63L-186.34999999999997-56.7Q-191.45-61.1 -196.39999999999998-63Q-201.34999999999997-64.9 -207.34999999999997-64.9L-207.34999999999997-64.9Q-219.04999999999998-64.9 -225.49999999999997-57.3Q-231.95-49.7 -231.95-35.7L-231.95-35.7Q-231.95-21.6 -225.54999999999998-13.95Q-219.14999999999998-6.3 -207.34999999999997-6.3L-207.34999999999997-6.3Q-201.34999999999997-6.3 -196.39999999999998-8.2Q-191.45-10.1 -186.34999999999997-14.5L-186.34999999999997-14.5L-183.24999999999997-8.2Q-187.74999999999997-3.7 -193.89999999999998-1.45Q-200.04999999999998 0.8 -207.45 0.8L-207.45 0.8ZM-147.04999999999998-51.5Q-144.54999999999995-51.5 -142.45-50.9L-142.45-50.9L-142.64999999999998-43.5Q-144.95-44.3 -147.94999999999996-44.3L-147.94999999999996-44.3Q-155.24999999999997-44.3 -158.79999999999998-39.75Q-162.34999999999997-35.2 -162.34999999999997-28.7L-162.34999999999997-28.7L-162.34999999999997 0L-170.44999999999996 0L-170.44999999999996-36.2Q-170.44999999999996-44 -171.24999999999997-50.3L-171.24999999999997-50.3L-163.54999999999998-50.3L-162.74999999999997-41Q-160.84999999999997-46.1 -156.64999999999998-48.8Q-152.44999999999996-51.5 -147.04999999999998-51.5L-147.04999999999998-51.5ZM-114.44999999999996 0.7Q-121.54999999999995 0.7 -126.94999999999996-2.5Q-132.34999999999997-5.7 -135.29999999999995-11.6Q-138.24999999999994-17.5 -138.24999999999994-25.4L-138.24999999999994-25.4Q-138.24999999999994-33.3 -135.29999999999995-39.2Q-132.34999999999997-45.1 -126.94999999999996-48.3Q-121.54999999999995-51.5 -114.44999999999996-51.5L-114.44999999999996-51.5Q-107.34999999999995-51.5 -101.94999999999996-48.3Q-96.54999999999995-45.1 -93.59999999999995-39.2Q-90.64999999999995-33.3 -90.64999999999995-25.4L-90.64999999999995-25.4Q-90.64999999999995-17.5 -93.59999999999995-11.6Q-96.54999999999995-5.7 -101.94999999999996-2.5Q-107.34999999999995 0.7 -114.44999999999996 0.7L-114.44999999999996 0.7ZM-114.44999999999996-6Q-106.94999999999996-6 -102.94999999999996-10.95Q-98.94999999999996-15.9 -98.94999999999996-25.4L-98.94999999999996-25.4Q-98.94999999999996-34.6 -103.04999999999995-39.65Q-107.14999999999995-44.7 -114.44999999999996-44.7L-114.44999999999996-44.7Q-121.84999999999995-44.7 -125.94999999999996-39.65Q-130.04999999999995-34.6 -130.04999999999995-25.4L-130.04999999999995-25.4Q-130.04999999999995-15.9 -125.99999999999996-10.95Q-121.94999999999996-6 -114.44999999999996-6L-114.44999999999996-6ZM-61.049999999999955 0.7Q-73.74999999999996 0.7 -81.14999999999995-5.8L-81.14999999999995-5.8L-78.44999999999995-11.8Q-74.34999999999995-8.6 -70.14999999999995-7.2Q-65.94999999999996-5.8 -60.74999999999995-5.8L-60.74999999999995-5.8Q-55.049999999999955-5.8 -52.09999999999995-7.75Q-49.14999999999995-9.7 -49.14999999999995-13.4L-49.14999999999995-13.4Q-49.14999999999995-16.4 -51.14999999999995-18.2Q-53.14999999999995-20 -57.74999999999995-21L-57.74999999999995-21L-66.24999999999994-23Q-72.54999999999995-24.4 -75.99999999999996-28Q-79.44999999999995-31.6 -79.44999999999995-36.6L-79.44999999999995-36.6Q-79.44999999999995-43.2 -74.14999999999995-47.35Q-68.84999999999995-51.5 -60.14999999999995-51.5L-60.14999999999995-51.5Q-54.84999999999995-51.5 -50.14999999999995-49.8Q-45.44999999999995-48.1 -42.24999999999995-44.9L-42.24999999999995-44.9L-44.94999999999995-39Q-52.049999999999955-44.9 -60.14999999999995-44.9L-60.14999999999995-44.9Q-65.54999999999995-44.9 -68.49999999999994-42.85Q-71.44999999999995-40.8 -71.44999999999995-37.1L-71.44999999999995-37.1Q-71.44999999999995-34 -69.59999999999995-32.2Q-67.74999999999994-30.4 -63.64999999999995-29.4L-63.64999999999995-29.4L-55.14999999999995-27.3Q-48.14999999999995-25.7 -44.74999999999995-22.35Q-41.34999999999995-19 -41.34999999999995-13.6L-41.34999999999995-13.6Q-41.34999999999995-7.1 -46.64999999999995-3.2Q-51.94999999999995 0.7 -61.049999999999955 0.7L-61.049999999999955 0.7ZM-11.44999999999995 0.7Q-24.14999999999995 0.7 -31.54999999999995-5.8L-31.54999999999995-5.8L-28.84999999999995-11.8Q-24.74999999999995-8.6 -20.54999999999995-7.2Q-16.34999999999995-5.8 -11.149999999999949-5.8L-11.149999999999949-5.8Q-5.4499999999999496-5.8 -2.4999999999999503-7.75Q 0.4500000000000526-9.7  0.4500000000000526-13.4L 0.4500000000000526-13.4Q 0.4500000000000526-16.4 -1.5499999999999474-18.2Q-3.5499999999999474-20 -8.149999999999949-21L-8.149999999999949-21L-16.64999999999995-23Q-22.94999999999995-24.4 -26.39999999999995-28Q-29.84999999999995-31.6 -29.84999999999995-36.6L-29.84999999999995-36.6Q-29.84999999999995-43.2 -24.54999999999995-47.35Q-19.24999999999995-51.5 -10.549999999999951-51.5L-10.549999999999951-51.5Q-5.24999999999995-51.5 -0.5499999999999474-49.8Q 4.150000000000048-48.1  7.350000000000051-44.9L 7.350000000000051-44.9L 4.650000000000048-39Q-2.449999999999953-44.9 -10.549999999999951-44.9L-10.549999999999951-44.9Q-15.94999999999995-44.9 -18.89999999999995-42.85Q-21.84999999999995-40.8 -21.84999999999995-37.1L-21.84999999999995-37.1Q-21.84999999999995-34 -19.99999999999995-32.2Q-18.14999999999995-30.4 -14.049999999999951-29.4L-14.049999999999951-29.4L-5.549999999999951-27.3Q 1.4500000000000526-25.7  4.850000000000051-22.35Q 8.25000000000005-19  8.25000000000005-13.6L 8.25000000000005-13.6Q 8.25000000000005-7.1  2.9500000000000526-3.2Q-2.3499999999999517 0.7 -11.44999999999995 0.7L-11.44999999999995 0.7ZM 66.05000000000005 0L 22.150000000000055 0L 22.150000000000055-71.2L 30.350000000000055-71.2L 30.350000000000055-7L 66.05000000000005-7L 66.05000000000005 0ZM 111.85000000000005-50.3L 119.85000000000005-50.3L 119.85000000000005 0L 111.85000000000005 0L 111.85000000000005-9.1Q 109.65000000000006-4.4  105.20000000000006-1.85Q 100.75000000000006 0.7  94.85000000000005 0.7L 94.85000000000005 0.7Q 88.15000000000006 0.7  83.10000000000005-2.5Q 78.05000000000005-5.7  75.30000000000005-11.55Q 72.55000000000005-17.4  72.55000000000005-25.2L 72.55000000000005-25.2Q 72.55000000000005-33  75.35000000000005-38.95Q 78.15000000000006-44.9  83.20000000000006-48.2Q 88.25000000000006-51.5  94.85000000000005-51.5L 94.85000000000005-51.5Q 100.75000000000006-51.5  105.15000000000006-48.9Q 109.55000000000005-46.3  111.85000000000005-41.6L 111.85000000000005-41.6L 111.85000000000005-50.3ZM 96.45000000000006-6Q 103.85000000000005-6  107.85000000000005-11.05Q 111.85000000000005-16.1  111.85000000000005-25.4L 111.85000000000005-25.4Q 111.85000000000005-34.7  107.85000000000005-39.7Q 103.85000000000005-44.7  96.45000000000006-44.7L 96.45000000000006-44.7Q 89.05000000000005-44.7  84.90000000000006-39.55Q 80.75000000000006-34.4  80.75000000000006-25.2L 80.75000000000006-25.2Q 80.75000000000006-16  84.85000000000005-11Q 88.95000000000006-6  96.45000000000006-6L 96.45000000000006-6ZM 160.65000000000006-51.5Q 178.75000000000006-51.5  178.75000000000006-31.6L 178.75000000000006-31.6L 178.75000000000006 0L 170.65000000000006 0L 170.65000000000006-31.2Q 170.65000000000006-38.2  167.85000000000005-41.45Q 165.05000000000007-44.7  159.05000000000007-44.7L 159.05000000000007-44.7Q 152.05000000000007-44.7  147.85000000000005-40.4Q 143.65000000000006-36.1  143.65000000000006-28.8L 143.65000000000006-28.8L 143.65000000000006 0L 135.55000000000007 0L 135.55000000000007-36.2Q 135.55000000000007-44  134.75000000000006-50.3L 134.75000000000006-50.3L 142.45000000000005-50.3L 143.25000000000006-41.3Q 145.55000000000007-46.2  150.15000000000006-48.85Q 154.75000000000006-51.5  160.65000000000006-51.5L 160.65000000000006-51.5ZM 230.75000000000006-50.3L 238.85000000000005-50.3L 238.85000000000005-0.4Q 238.85000000000005 10.8  233.10000000000005 16.55Q 227.35000000000005 22.3  216.15000000000006 22.3L 216.15000000000006 22.3Q 204.65000000000006 22.3  196.35000000000005 17.1L 196.35000000000005 17.1L 197.75000000000006 10.5Q 202.55000000000007 13.2  206.80000000000007 14.4Q 211.05000000000007 15.6  216.15000000000006 15.6L 216.15000000000006 15.6Q 223.45000000000005 15.6  227.15000000000006 11.75Q 230.85000000000005 7.9  230.85000000000005 0.3L 230.85000000000005 0.3L 230.85000000000005-11.6Q 228.55000000000007-6.8  224.10000000000005-4.15Q 219.65000000000006-1.5  213.55000000000007-1.5L 213.55000000000007-1.5Q 206.95000000000005-1.5  201.80000000000007-4.6Q 196.65000000000006-7.7  193.85000000000005-13.4Q 191.05000000000007-19.1  191.05000000000007-26.5L 191.05000000000007-26.5Q 191.05000000000007-33.9  193.85000000000005-39.6Q 196.65000000000006-45.3  201.80000000000007-48.4Q 206.95000000000005-51.5  213.55000000000007-51.5L 213.55000000000007-51.5Q 219.55000000000007-51.5  224.00000000000006-48.9Q 228.45000000000005-46.3  230.75000000000006-41.6L 230.75000000000006-41.6L 230.75000000000006-50.3ZM 215.15000000000006-8.3Q 222.45000000000005-8.3  226.60000000000005-13.15Q 230.75000000000006-18  230.75000000000006-26.5L 230.75000000000006-26.5Q 230.75000000000006-35  226.60000000000005-39.85Q 222.45000000000005-44.7  215.15000000000006-44.7L 215.15000000000006-44.7Q 207.75000000000006-44.7  203.50000000000006-39.85Q 199.25000000000006-35  199.25000000000006-26.5L 199.25000000000006-26.5Q 199.25000000000006-18  203.50000000000006-13.15Q 207.75000000000006-8.3  215.15000000000006-8.3L 215.15000000000006-8.3Z"></path><g id="_pYv7zJ07liLqjnBc2w5rI" transform="matrix(0.584146534606684, 0, 0, 0.584146534606684, 104.94952268048075, 109.69557739057106)" fill="#6d3cc3" data-uid="o_f1l6i3ih8_6"><path id="_ow4-UATCK5wGrSZp_mz1v" d="M90.716 58.23c0.106-0.063 0.225-0.094 0.345-0.102l-0.651-8.221l-15.451 8.898l7.379 4.248L90.716 58.23z" stroke="none" fill="#6d3cc3" transform="matrix(4.03521203994751, 0, 0, 4.03521203994751, 0.31736359000205994, -60.99070358276367)" stroke-width="1" data-uid="o_f1l6i3ih8_7"></path><path id="__nRyec1MKjlBwNzhDwzn8" stroke="none" fill="#6d3cc3" transform="matrix(4.03521203994751, 0, 0, 4.03521203994751, -2.4572951793670654, -61.68404006958008)" stroke-width="1" data-type="polygon" d="M38.218 79.959L37.434 89.857L63.781 74.688L55.426 70.053Z" data-uid="o_f1l6i3ih8_8"></path><path id="_tnVgO9eBL8EX3OhJNhKgl" d="M38.148 49.908l-0.65 8.221c0.119 0.01 0.239 0.039 0.347 0.102l8.789 5.061h0.001l44.49 26.566l-0.785-9.898   L38.148 49.908z" stroke="none" fill="#6d3cc3" transform="matrix(4.03521203994751, 0, 0, 4.03521203994751, -0.7609748840332031, -62.060951232910156)" stroke-width="1" data-uid="o_f1l6i3ih8_9"></path><path id="_ZI_rrd8g6whnlJDVU2jEF" d="M99.914 63.055l7.379-4.248L91.84 49.908l-0.65 8.221c0.119 0.008 0.239 0.039 0.348 0.102L99.914 63.055z" stroke="none" fill="#6d3cc3" transform="matrix(4.03521203994751, 0, 0, 4.03521203994751, -0.6873214244842529, -60.9947395324707)" stroke-width="1" data-uid="o_f1l6i3ih8_10"></path><path id="_kvd54WTycxtIn1b6MMGo9" d="M64.904 53.248l8.394 4.613l17.184-9.895c0.138-0.17 0.341-0.289 0.579-0.309c0.285-0.021 0.547 0.104 0.712 0.313   l17.581 10.121c0.014 0.008 0.025 0.02 0.037 0.027c0.026 0.018 0.05 0.033 0.074 0.053c0.02 0.016 0.039 0.035 0.059 0.055   c0.018 0.018 0.036 0.037 0.053 0.057c0.02 0.023 0.036 0.049 0.053 0.074c0.009 0.014 0.02 0.023 0.038 0.061   c0.014 0.027 0.025 0.055 0.036 0.082c0.01 0.021 0.02 0.047 0.026 0.07c0.008 0.025 0.013 0.051 0.018 0.078   c0.006 0.025 0.012 0.053 0.014 0.078c0.003 0.027 0.002 0.053 0.002 0.08c0 0.025 0.001 0.051-0.002 0.078   c-0.002 0.025-0.008 0.053-0.014 0.078c-0.005 0.027-0.01 0.053-0.018 0.078c-0.007 0.023-0.017 0.047-0.026 0.07   c-0.011 0.027-0.022 0.055-0.047 0.105c-0.005 0.01-0.014 0.016-0.02 0.023c-0.027 0.045-0.059 0.086-0.096 0.125   c-0.012 0.014-0.021 0.025-0.035 0.037c-0.046 0.043-0.096 0.084-0.158 0.119L91.537 69.777c-0.128 0.074-0.271 0.109-0.412 0.109   s-0.283-0.035-0.409-0.109L37.458 38.143L1.573 58.801l35.857 19.713l16.318-9.395l-7.517-4.17l-8.388 4.828   c-0.127 0.074-0.269 0.111-0.41 0.111s-0.284-0.037-0.411-0.111c-0.815-0.451-16.51-9.107-17.285-9.568   c-0.514-0.305-1.114-0.572-1.021-1.271c0.111-0.842 1.209-1.262 1.861-1.637c2.014-1.16 4.028-2.318 6.042-3.479   c2.295-1.322 9.075-5.225 10.17-5.855c0.138-0.17 0.341-0.289 0.579-0.309c0.285-0.021 0.547 0.104 0.713 0.313l53.053 30.545   l35.863-19.709L91.125 38.15L64.904 53.248z" stroke="none" fill="rgba(184, 144, 255, 0.8694029850746269)" transform="matrix(4.03521203994751, 0, 0, 4.03521203994751, -0.8433899879455566, -57.38640213012695)" stroke-width="1" data-uid="o_f1l6i3ih8_11"></path><path id="_quCRKKN64DsD_aYPtM6Pv" stroke="none" fill="#6d3cc3" transform="matrix(4.03521203994751, 0, 0, 4.03521203994751, -0.4719046354293823, -60.66849899291992)" stroke-width="1" data-type="polygon" d="M127 58.807L91.91 79.949L91.126 89.857L127 69.203Z" data-uid="o_f1l6i3ih8_12"></path><path id="_MTwFz5raYgvUR3CDYPFF_" d="M21.266 58.807l7.381 4.248l8.377-4.824c0.107-0.063 0.226-0.092 0.346-0.102l-0.651-8.221L21.266 58.807z" stroke="none" fill="#6d3cc3" transform="matrix(4.03521203994751, 0, 0, 4.03521203994751, -2.691941976547241, -60.9947395324707)" stroke-width="1" data-uid="o_f1l6i3ih8_13"></path><path id="_28xFodxhc-LWlQWK_e1Wd" stroke="none" fill="#6d3cc3" transform="matrix(3.943514585494995, 0, 0, 3.9911773204803467, 1.1770024299621582, -58.404117584228516)" stroke-width="1" data-type="polygon" d="M1 58.807L1 69.203L37.154 89.857L36.229 79.949Z" data-uid="o_f1l6i3ih8_14"></path></g></svg>